<svg width="28" height="28" viewBox="0 0 28 28" fill="none" xmlns="http://www.w3.org/2000/svg">
<path d="M13.9999 7.50002C12.7143 7.50002 11.4576 7.88123 10.3887 8.59546C9.31979 9.30969 8.48667 10.3249 7.9947 11.5126C7.50273 12.7003 7.37401 14.0072 7.62482 15.2681C7.87562 16.529 8.49468 17.6872 9.40373 18.5962C10.3128 19.5053 11.471 20.1243 12.7318 20.3751C13.9927 20.6259 15.2996 20.4972 16.4874 20.0052C17.6751 19.5133 18.6902 18.6801 19.4045 17.6112C20.1187 16.5423 20.4999 15.2856 20.4999 14C20.4979 12.2767 19.8125 10.6246 18.5939 9.40601C17.3754 8.18746 15.7232 7.502 13.9999 7.50002ZM13.9999 17.5C13.3077 17.5 12.631 17.2947 12.0554 16.9102C11.4799 16.5256 11.0312 15.9789 10.7663 15.3394C10.5014 14.6999 10.4321 13.9961 10.5672 13.3172C10.7022 12.6383 11.0356 12.0146 11.525 11.5251C12.0145 11.0357 12.6382 10.7023 13.3171 10.5673C13.996 10.4322 14.6998 10.5015 15.3393 10.7664C15.9789 11.0313 16.5255 11.4799 16.9101 12.0555C17.2946 12.6311 17.4999 13.3078 17.4999 14C17.4999 14.9283 17.1312 15.8185 16.4748 16.4749C15.8184 17.1313 14.9282 17.5 13.9999 17.5ZM25.4999 14.0988V13.9013L27.2499 11.7125C27.3968 11.5291 27.4986 11.3138 27.547 11.0838C27.5954 10.8539 27.5891 10.6158 27.5287 10.3888C27.2129 9.19765 26.7409 8.05355 26.1249 6.98627C26.0063 6.78274 25.8413 6.61003 25.6435 6.48211C25.4457 6.3542 25.2205 6.27469 24.9862 6.25002L22.2012 5.93752L22.0624 5.79877L21.7499 3.01252C21.7251 2.77844 21.6455 2.55351 21.5176 2.3559C21.3897 2.15829 21.217 1.99355 21.0137 1.87502C19.9463 1.25713 18.8018 0.78342 17.6099 0.466266C17.3827 0.406689 17.1446 0.401328 16.9149 0.450614C16.6852 0.4999 16.4702 0.602455 16.2874 0.750016L14.0987 2.50002H13.9012L11.7124 0.750016C11.529 0.603118 11.3137 0.501359 11.0838 0.452941C10.8538 0.404523 10.6157 0.4108 10.3887 0.471266C9.19724 0.78903 8.05313 1.26315 6.98617 1.88127C6.78344 1.99931 6.61122 2.16326 6.48335 2.35995C6.35548 2.55664 6.27553 2.78057 6.24992 3.01377L5.93742 5.79877L5.79867 5.93752L3.01242 6.25002C2.77835 6.27488 2.55341 6.35448 2.3558 6.48238C2.15819 6.61029 1.99346 6.7829 1.87492 6.98627C1.25877 8.05389 0.786745 9.19843 0.47117 10.39C0.41091 10.6169 0.404739 10.8547 0.453153 11.0844C0.501567 11.3141 0.603215 11.5293 0.74992 11.7125L2.49992 13.9013V14.0988L0.74992 16.2875C0.603021 16.4709 0.501262 16.6863 0.452844 16.9162C0.404426 17.1461 0.410703 17.3842 0.47117 17.6113C0.789328 18.8028 1.26387 19.9469 1.88242 21.0138C2.00034 21.2163 2.1641 21.3885 2.36055 21.5163C2.55701 21.6442 2.7807 21.7242 3.01367 21.75L5.79867 22.06L5.93742 22.1988L6.24992 24.9875C6.27478 25.2216 6.35438 25.4465 6.48229 25.6441C6.61019 25.8417 6.7828 26.0065 6.98617 26.125C8.05354 26.7429 9.19808 27.2166 10.3899 27.5338C10.6172 27.5933 10.8553 27.5987 11.085 27.5494C11.3147 27.5001 11.5296 27.3976 11.7124 27.25L13.9012 25.5H14.0987L16.2874 27.25C16.4708 27.3969 16.6862 27.4987 16.9161 27.5471C17.146 27.5955 17.3841 27.5892 17.6112 27.5288C18.8023 27.213 19.9464 26.741 21.0137 26.125C21.2169 26.0073 21.3896 25.8434 21.5179 25.6467C21.6462 25.45 21.7265 25.2259 21.7524 24.9925L22.0624 22.2075L22.2012 22.0688L24.9874 21.75C25.2208 21.7241 25.4449 21.6438 25.6416 21.5155C25.8383 21.3872 26.0022 21.2145 26.1199 21.0113C26.7378 19.9439 27.2115 18.7994 27.5287 17.6075C27.5885 17.381 27.5945 17.1436 27.5461 16.9144C27.4977 16.6852 27.3962 16.4705 27.2499 16.2875L25.4999 14.0988ZM22.4849 13.4875C22.5049 13.8289 22.5049 14.1711 22.4849 14.5125C22.4626 14.8836 22.5788 15.2498 22.8112 15.54L24.4162 17.5463C24.2647 17.9947 24.0839 18.4328 23.8749 18.8575L21.3212 19.1413C20.9514 19.1835 20.6106 19.3617 20.3649 19.6413C20.1378 19.8971 19.8957 20.1392 19.6399 20.3663C19.3604 20.612 19.1822 20.9528 19.1399 21.3225L18.8574 23.875C18.4327 24.0848 17.9947 24.2664 17.5462 24.4188L15.5399 22.8125C15.2737 22.6001 14.943 22.4846 14.6024 22.485C14.5724 22.485 14.5424 22.485 14.5124 22.485C14.171 22.505 13.8288 22.505 13.4874 22.485C13.1166 22.463 12.7507 22.5788 12.4599 22.81L10.4537 24.4163C10.0052 24.2648 9.56718 24.084 9.14242 23.875L8.85867 21.3213C8.8164 20.9515 8.63819 20.6107 8.35867 20.365C8.10284 20.1379 7.86075 19.8958 7.63367 19.64C7.38798 19.3605 7.04716 19.1823 6.67742 19.14L4.12492 18.8575C3.91513 18.4328 3.73349 17.9948 3.58117 17.5463L5.18617 15.54C5.41849 15.2498 5.53476 14.8836 5.51242 14.5125C5.49242 14.1711 5.49242 13.8289 5.51242 13.4875C5.53476 13.1164 5.41849 12.7503 5.18617 12.46L3.58367 10.4538C3.73518 10.0053 3.91598 9.56728 4.12492 9.14252L6.67867 8.85877C7.04841 8.81649 7.38923 8.63828 7.63492 8.35877C7.862 8.10294 8.10409 7.86084 8.35992 7.63377C8.63944 7.38808 8.81765 7.04725 8.85992 6.67752L9.14242 4.12502C9.56712 3.91523 10.0051 3.73359 10.4537 3.58127L12.4599 5.18752C12.7507 5.41875 13.1166 5.53449 13.4874 5.51252C13.8288 5.49252 14.171 5.49252 14.5124 5.51252C14.8834 5.53521 15.2495 5.41939 15.5399 5.18752L17.5462 3.58127C17.9947 3.73359 18.4327 3.91523 18.8574 4.12502L19.1412 6.67877C19.1834 7.0485 19.3617 7.38933 19.6412 7.63502C19.897 7.86209 20.1391 8.10419 20.3662 8.36002C20.6119 8.63953 20.9527 8.81774 21.3224 8.86002L23.8749 9.14252C24.0847 9.56721 24.2663 10.0052 24.4187 10.4538L22.8137 12.46C22.5805 12.7499 22.4633 13.1161 22.4849 13.4875Z" fill="black"/>
</svg>
