<svg width="32" height="32" viewBox="0 0 32 32" xmlns="http://www.w3.org/2000/svg">
<g id="MagnifyingGlass">
<path id="Vector" d="M29.0613 26.9388L23.1251 21C24.905 18.6806 25.7359 15.771 25.4494 12.8614C25.163 9.95187 23.7805 7.26022 21.5824 5.3325C19.3843 3.40477 16.5353 2.38533 13.6132 2.48096C10.6911 2.57659 7.91485 3.78014 5.84752 5.84746C3.7802 7.91478 2.57665 10.6911 2.48102 13.6131C2.38539 16.5352 3.40483 19.3842 5.33256 21.5823C7.26028 23.7804 9.95194 25.1629 12.8615 25.4494C15.7711 25.7359 18.6807 24.9049 21.0001 23.125L26.9413 29.0675C27.0809 29.207 27.2465 29.3177 27.4288 29.3932C27.6111 29.4687 27.8065 29.5076 28.0038 29.5076C28.2011 29.5076 28.3965 29.4687 28.5788 29.3932C28.7611 29.3177 28.9268 29.207 29.0663 29.0675C29.2059 28.928 29.3165 28.7623 29.392 28.58C29.4676 28.3977 29.5064 28.2023 29.5064 28.005C29.5064 27.8077 29.4676 27.6123 29.392 27.43C29.3165 27.2477 29.2059 27.082 29.0663 26.9425L29.0613 26.9388ZM5.50007 14C5.50007 12.3189 5.99859 10.6755 6.93258 9.27766C7.86657 7.87985 9.19409 6.79038 10.7473 6.14704C12.3004 5.50369 14.0095 5.33536 15.6583 5.66334C17.3072 5.99131 18.8217 6.80086 20.0105 7.9896C21.1992 9.17835 22.0088 10.6929 22.3367 12.3417C22.6647 13.9906 22.4964 15.6996 21.853 17.2528C21.2097 18.806 20.1202 20.1335 18.7224 21.0675C17.3246 22.0015 15.6812 22.5 14.0001 22.5C11.7464 22.4977 9.58578 21.6014 7.99222 20.0079C6.39867 18.4143 5.50239 16.2536 5.50007 14Z" fill="black"/>
</g>
</svg>
