<svg width="28" height="22" viewBox="0 0 28 22" fill="none" xmlns="http://www.w3.org/2000/svg">
<path d="M3 2V20C3 20.3978 2.84196 20.7794 2.56066 21.0607C2.27936 21.342 1.89782 21.5 1.5 21.5C1.10218 21.5 0.720644 21.342 0.43934 21.0607C0.158035 20.7794 0 20.3978 0 20V2C0 1.60218 0.158035 1.22064 0.43934 0.93934C0.720644 0.658035 1.10218 0.5 1.5 0.5C1.89782 0.5 2.27936 0.658035 2.56066 0.93934C2.84196 1.22064 3 1.60218 3 2ZM13.3412 8.3375L11.5 8.935V7C11.5 6.60218 11.342 6.22064 11.0607 5.93934C10.7794 5.65804 10.3978 5.5 10 5.5C9.60218 5.5 9.22064 5.65804 8.93934 5.93934C8.65804 6.22064 8.5 6.60218 8.5 7V8.935L6.65875 8.3375C6.47004 8.27112 6.26995 8.24315 6.07027 8.25525C5.87059 8.26735 5.67535 8.31927 5.49603 8.40795C5.31671 8.49663 5.15695 8.62029 5.02613 8.77164C4.89532 8.92299 4.7961 9.09897 4.73432 9.28924C4.67254 9.47951 4.64944 9.68021 4.66638 9.87954C4.68332 10.0789 4.73996 10.2728 4.83297 10.4499C4.92598 10.627 5.05348 10.7837 5.20796 10.9108C5.36244 11.0379 5.54079 11.1329 5.7325 11.19L7.5725 11.7887L6.435 13.3538C6.20111 13.6757 6.10468 14.0773 6.16692 14.4703C6.22916 14.8633 6.44497 15.2155 6.76688 15.4494C7.08878 15.6833 7.49042 15.7797 7.88342 15.7175C8.27643 15.6552 8.62861 15.4394 8.8625 15.1175L10 13.5525L11.1375 15.1175C11.3714 15.4394 11.7236 15.6552 12.1166 15.7175C12.5096 15.7797 12.9112 15.6833 13.2331 15.4494C13.555 15.2155 13.7708 14.8633 13.8331 14.4703C13.8953 14.0773 13.7989 13.6757 13.565 13.3538L12.4275 11.7887L14.2675 11.19C14.4592 11.1329 14.6376 11.0379 14.792 10.9108C14.9465 10.7837 15.074 10.627 15.167 10.4499C15.26 10.2728 15.3167 10.0789 15.3336 9.87954C15.3506 9.68021 15.3275 9.47951 15.2657 9.28924C15.2039 9.09897 15.1047 8.92299 14.9739 8.77164C14.8431 8.62029 14.6833 8.49663 14.504 8.40795C14.3247 8.31927 14.1294 8.26735 13.9297 8.25525C13.73 8.24315 13.53 8.27112 13.3412 8.3375ZM27.2313 9.3C27.1082 8.92177 26.84 8.6079 26.4855 8.42741C26.1311 8.24692 25.7195 8.21457 25.3412 8.3375L23.5 8.935V7C23.5 6.60218 23.342 6.22064 23.0607 5.93934C22.7794 5.65804 22.3978 5.5 22 5.5C21.6022 5.5 21.2206 5.65804 20.9393 5.93934C20.658 6.22064 20.5 6.60218 20.5 7V8.935L18.6588 8.3375C18.47 8.27112 18.27 8.24315 18.0703 8.25525C17.8706 8.26735 17.6753 8.31927 17.496 8.40795C17.3167 8.49663 17.1569 8.62029 17.0261 8.77164C16.8953 8.92299 16.7961 9.09897 16.7343 9.28924C16.6725 9.47951 16.6494 9.68021 16.6664 9.87954C16.6833 10.0789 16.74 10.2728 16.833 10.4499C16.926 10.627 17.0535 10.7837 17.208 10.9108C17.3624 11.0379 17.5408 11.1329 17.7325 11.19L19.5725 11.7887L18.435 13.3538C18.2011 13.6757 18.1047 14.0773 18.1669 14.4703C18.2292 14.8633 18.445 15.2155 18.7669 15.4494C19.0888 15.6833 19.4904 15.7797 19.8834 15.7175C20.2764 15.6552 20.6286 15.4394 20.8625 15.1175L22 13.5525L23.1375 15.1175C23.2533 15.2769 23.3994 15.4119 23.5674 15.5149C23.7354 15.6178 23.922 15.6866 24.1166 15.7175C24.3112 15.7483 24.5099 15.7405 24.7015 15.6945C24.8931 15.6485 25.0737 15.5652 25.2331 15.4494C25.3925 15.3336 25.5275 15.1875 25.6305 15.0195C25.7334 14.8515 25.8023 14.6649 25.8331 14.4703C25.8639 14.2757 25.8561 14.0769 25.8101 13.8854C25.7641 13.6938 25.6808 13.5131 25.565 13.3538L24.4275 11.7887L26.2675 11.19C26.4549 11.1292 26.6285 11.0321 26.7783 10.9042C26.9282 10.7763 27.0514 10.6201 27.1409 10.4446C27.2304 10.2691 27.2844 10.0777 27.2999 9.8813C27.3154 9.68491 27.2921 9.48738 27.2313 9.3Z" fill="#8F51E1"/>
</svg>
