<svg width="26" height="26" viewBox="0 0 26 26" fill="none" xmlns="http://www.w3.org/2000/svg">
<path d="M11.5 24C11.5 24.3978 11.342 24.7794 11.0607 25.0607C10.7794 25.342 10.3978 25.5 10 25.5H3C2.33696 25.5 1.70107 25.2366 1.23223 24.7678C0.763392 24.2989 0.5 23.663 0.5 23V3C0.5 2.33696 0.763392 1.70107 1.23223 1.23223C1.70107 0.763392 2.33696 0.5 3 0.5H10C10.3978 0.5 10.7794 0.658035 11.0607 0.93934C11.342 1.22064 11.5 1.60218 11.5 2C11.5 2.39782 11.342 2.77936 11.0607 3.06066C10.7794 3.34196 10.3978 3.5 10 3.5H3.5V22.5H10C10.3978 22.5 10.7794 22.658 11.0607 22.9393C11.342 23.2206 11.5 23.6022 11.5 24ZM25.0612 11.9388L20.0612 6.93875C19.7795 6.65696 19.3973 6.49865 18.9987 6.49865C18.6002 6.49865 18.218 6.65696 17.9362 6.93875C17.6545 7.22054 17.4961 7.60274 17.4961 8.00125C17.4961 8.39977 17.6545 8.78196 17.9362 9.06375L20.375 11.5H10C9.60217 11.5 9.22064 11.658 8.93934 11.9393C8.65803 12.2206 8.5 12.6022 8.5 13C8.5 13.3978 8.65803 13.7794 8.93934 14.0607C9.22064 14.342 9.60217 14.5 10 14.5H20.375L17.935 16.9387C17.6532 17.2205 17.4949 17.6027 17.4949 18.0012C17.4949 18.3998 17.6532 18.782 17.935 19.0637C18.2168 19.3455 18.599 19.5039 18.9975 19.5039C19.396 19.5039 19.7782 19.3455 20.06 19.0637L25.06 14.0637C25.1999 13.9245 25.311 13.759 25.3868 13.5767C25.4626 13.3944 25.5017 13.1989 25.5018 13.0015C25.5019 12.8041 25.4631 12.6086 25.3875 12.4262C25.3119 12.2438 25.201 12.0782 25.0612 11.9388Z" fill="#EBEBEB"/>
</svg>
