<svg width="28" height="28" viewBox="0 0 28 28" fill="none" xmlns="http://www.w3.org/2000/svg">
<path d="M14 0.5C11.33 0.5 8.71987 1.29176 6.49981 2.77516C4.27974 4.25856 2.54942 6.36697 1.52763 8.83377C0.505849 11.3006 0.238504 14.015 0.759405 16.6337C1.28031 19.2525 2.56606 21.6579 4.45406 23.5459C6.34207 25.434 8.74754 26.7197 11.3663 27.2406C13.985 27.7615 16.6994 27.4942 19.1662 26.4724C21.633 25.4506 23.7414 23.7203 25.2248 21.5002C26.7082 19.2801 27.5 16.67 27.5 14C27.496 10.4208 26.0724 6.98932 23.5416 4.45844C21.0107 1.92756 17.5792 0.50397 14 0.5ZM7.94626 22.5713C8.6426 21.6191 9.55371 20.8447 10.6056 20.3108C11.6574 19.7769 12.8204 19.4987 14 19.4987C15.1796 19.4987 16.3426 19.7769 17.3944 20.3108C18.4463 20.8447 19.3574 21.6191 20.0538 22.5713C18.2845 23.826 16.169 24.5 14 24.5C11.831 24.5 9.71553 23.826 7.94626 22.5713ZM10.5 13C10.5 12.3078 10.7053 11.6311 11.0899 11.0555C11.4744 10.4799 12.0211 10.0313 12.6606 9.76642C13.3002 9.50151 14.0039 9.4322 14.6828 9.56725C15.3618 9.7023 15.9854 10.0356 16.4749 10.5251C16.9644 11.0146 17.2977 11.6383 17.4328 12.3172C17.5678 12.9961 17.4985 13.6999 17.2336 14.3394C16.9687 14.9789 16.5201 15.5256 15.9445 15.9101C15.3689 16.2947 14.6922 16.5 14 16.5C13.0717 16.5 12.1815 16.1313 11.5251 15.4749C10.8688 14.8185 10.5 13.9283 10.5 13ZM22.25 20.4925C21.2778 19.2559 20.0385 18.2551 18.625 17.565C19.5259 16.6527 20.1368 15.4944 20.381 14.2358C20.6252 12.9772 20.4917 11.6744 19.9974 10.4915C19.503 9.30853 18.6699 8.29819 17.6027 7.58757C16.5356 6.87695 15.2821 6.49779 14 6.49779C12.7179 6.49779 11.4644 6.87695 10.3973 7.58757C9.33015 8.29819 8.497 9.30853 8.00264 10.4915C7.50828 11.6744 7.3748 12.9772 7.61899 14.2358C7.86319 15.4944 8.47414 16.6527 9.37501 17.565C7.96147 18.2551 6.72224 19.2559 5.75001 20.4925C4.52881 18.9444 3.76819 17.0838 3.5552 15.1236C3.34221 13.1634 3.68546 11.1828 4.54567 9.40859C5.40587 7.63437 6.74827 6.13822 8.41918 5.09139C10.0901 4.04457 12.022 3.48938 13.9938 3.48938C15.9655 3.48938 17.8974 4.04457 19.5683 5.09139C21.2392 6.13822 22.5816 7.63437 23.4418 9.40859C24.3021 11.1828 24.6453 13.1634 24.4323 15.1236C24.2193 17.0838 23.4587 18.9444 22.2375 20.4925H22.25Z" fill="#8F51E1"/>
</svg>
