<svg width="74" height="74" viewBox="0 0 74 74" fill="none" xmlns="http://www.w3.org/2000/svg">
<circle cx="37" cy="37" r="37" fill="#D9D9D9"/>
<path d="M55.2841 52.0938C52.9276 47.958 49.248 44.7354 44.8376 42.9449C47.0308 41.2999 48.6509 39.0066 49.4684 36.3897C50.2858 33.7728 50.2592 30.965 49.3922 28.3641C48.5253 25.7632 46.8619 23.5011 44.6378 21.898C42.4137 20.295 39.7416 19.4324 37 19.4324C34.2585 19.4324 31.5864 20.295 29.3623 21.898C27.1382 23.5011 25.4748 25.7632 24.6079 28.3641C23.7409 30.965 23.7143 33.7728 24.5317 36.3897C25.3492 39.0066 26.9693 41.2999 29.1625 42.9449C24.7521 44.7354 21.0725 47.958 18.716 52.0938C18.57 52.3286 18.4726 52.5903 18.4298 52.8635C18.387 53.1366 18.3995 53.4156 18.4666 53.6838C18.5338 53.952 18.6541 54.204 18.8206 54.4248C18.9871 54.6455 19.1962 54.8306 19.4356 54.9689C19.675 55.1072 19.9398 55.196 20.2142 55.2299C20.4886 55.2638 20.767 55.2423 21.0329 55.1665C21.2988 55.0907 21.5467 54.9622 21.762 54.7886C21.9772 54.6151 22.1554 54.4 22.2858 54.1563C25.4002 48.7732 30.9002 45.5625 37 45.5625C43.0999 45.5625 48.5999 48.7749 51.7143 54.1563C51.997 54.6109 52.4455 54.9378 52.9649 55.0678C53.4843 55.1978 54.0339 55.1208 54.4975 54.8529C54.9611 54.5851 55.3024 54.1474 55.4492 53.6325C55.596 53.1176 55.5368 52.5658 55.2841 52.0938ZM28.0625 32.5C28.0625 30.7324 28.5867 29.0044 29.5688 27.5346C30.5509 26.0649 31.9467 24.9193 33.5798 24.2429C35.2129 23.5664 37.01 23.3894 38.7437 23.7343C40.4774 24.0791 42.0699 24.9303 43.3198 26.1803C44.5697 27.4302 45.421 29.0227 45.7658 30.7564C46.1107 32.4901 45.9337 34.2871 45.2572 35.9203C44.5808 37.5534 43.4352 38.9492 41.9655 39.9313C40.4957 40.9134 38.7677 41.4375 37 41.4375C34.6305 41.4348 32.3588 40.4923 30.6833 38.8168C29.0078 37.1413 28.0653 34.8696 28.0625 32.5Z" fill="black"/>
</svg>
